<svg width="81" height="42" viewBox="0 0 81 42" fill="none" xmlns="http://www.w3.org/2000/svg">
<g clip-path="url(#clip0_10092_17857)">
<path d="M65.5354 19.8432C66.9868 19.8058 68.4399 19.7925 69.8914 19.7672C70.3644 19.7589 70.3682 19.7588 70.3616 19.3091C70.335 17.7841 70.3084 16.259 70.2818 14.7352C70.2753 14.3615 70.2975 14.3406 70.6826 14.3339C71.9883 14.3111 73.2943 14.2883 74.6008 14.2655C75.0663 14.2573 75.0739 14.2644 75.0817 14.7129C75.1085 16.2476 75.1353 17.7823 75.1621 19.317C75.1665 19.5677 75.2437 19.6773 75.5235 19.6725C77.0489 19.6378 78.5741 19.6112 80.099 19.5926C80.3575 19.5881 80.4412 19.4938 80.4369 19.249C80.3482 14.4542 80.2645 9.65921 80.1858 4.86417C80.1805 4.55916 80.0672 4.46949 79.7574 4.47851C78.2947 4.5149 76.8329 4.52956 75.3663 4.55516C74.9272 4.56282 74.9037 4.58614 74.911 5.00448C74.9371 6.49938 74.9632 7.99429 74.9893 9.4892C74.9964 9.89548 74.9853 9.90894 74.5537 9.91647L70.6356 9.98486C70.2078 9.99233 70.1951 9.9829 70.1879 9.57421C70.1617 8.06966 70.1353 6.56029 70.1091 5.05935C70.1025 4.6796 70.0655 4.64889 69.6703 4.65458L65.4046 4.72904C64.8601 4.73854 64.8589 4.73857 64.8678 5.24973C64.9088 7.59657 64.9497 9.94382 64.9907 12.2915C65.0324 14.6797 65.0741 17.0667 65.1157 19.4538C65.1209 19.7491 65.2181 19.8523 65.5354 19.8432Z" fill="#77747D"/>
<path d="M61.1268 26.4684C61.1009 24.9847 61.075 23.5003 61.0491 22.015C61.0417 21.593 61.0226 21.5765 60.5784 21.5843L52.6832 21.7221L52.6825 21.6847L44.7559 21.8231C44.3444 21.8302 44.3308 21.8425 44.3364 22.2356C44.3626 23.7401 44.3889 25.2435 44.4076 26.7481C44.4123 27.0194 44.4823 27.1436 44.7984 27.1369C46.1671 27.1057 47.5349 27.0976 48.9025 27.0797C49.447 27.0702 49.447 27.0702 49.4559 27.5802C49.5277 31.6928 49.5995 35.8046 49.6712 39.9156C49.6809 40.4689 49.6809 40.4701 50.2455 40.4603C51.9794 40.43 53.712 40.3998 55.4459 40.3695C56.2814 40.3549 56.1912 40.4361 56.1788 39.65C56.1124 35.5582 56.0409 31.4665 55.9645 27.3749C55.9573 26.9602 55.9573 26.9602 56.3976 26.9525C57.8388 26.9273 59.2803 26.9022 60.7223 26.877C61.1062 26.8715 61.1334 26.8445 61.1268 26.4684Z" fill="#77747D"/>
<path d="M29.4801 6.15807C29.5069 6.13645 29.5275 6.10872 29.5402 6.07743L29.3434 6.0881L29.4801 6.15807Z" fill="#77747D"/>
<path d="M80.4981 28.3685C80.4463 26.7691 80.003 25.2417 78.8603 23.9821C77.8366 22.8531 76.547 22.1641 75.0571 21.7922C72.5512 21.163 70.0111 21.2339 67.4683 21.5146C65.7861 21.6997 64.1347 22.0892 62.5539 22.6737C62.3444 22.7509 62.2747 22.8522 62.3372 23.0573C62.4708 23.5181 62.6044 23.9825 62.7379 24.442C62.7964 24.6027 62.8343 24.7697 62.8507 24.9393C63.1137 25.6269 63.2731 26.3441 63.4924 27.0433C63.7116 27.7425 63.7095 27.7631 64.4405 27.5091C65.9294 26.9695 67.5037 26.6805 69.0942 26.6549C69.8709 26.6498 70.633 26.7402 71.3443 27.0823C72.1847 27.4873 72.7662 28.5191 72.6474 29.4075C72.6218 29.5961 72.5262 29.6508 72.3458 29.5973C71.0452 29.2136 69.7017 29.1032 68.3536 29.0906C66.7519 29.0751 65.1855 29.2809 63.7388 30.0153C62.9392 30.4171 62.2539 31.0008 61.7429 31.7155C61.6547 31.8376 61.5525 31.9516 61.4567 32.0702L61.3984 32.1846C61.3841 32.3681 61.2788 32.5219 61.219 32.693C60.6053 34.5621 60.6687 36.3916 61.7287 38.0927C62.5034 39.3334 63.733 40.0391 65.1828 40.3442C67.0307 40.7341 68.8381 40.6024 70.5503 39.7597C71.2294 39.4234 71.8474 38.9833 72.3799 38.4567C72.4638 38.3745 72.5392 38.2369 72.6858 38.2922C72.8323 38.3475 72.7885 38.4966 72.793 38.6111C72.8111 39.0715 72.8216 39.5332 72.8347 39.9936C73.5637 39.9869 74.2929 39.9862 75.023 39.9723C76.92 39.9392 78.8165 39.9 80.7124 39.8549C80.6531 36.0271 80.6252 32.1963 80.4981 28.3685ZM69.11 35.6147C68.0831 34.733 68.3853 32.9948 69.6721 32.443C70.6026 32.0444 71.5498 32.169 72.5 32.3936C72.5566 32.4073 72.6062 32.44 72.6397 32.4859C72.6732 32.5318 72.6884 32.5878 72.6826 32.6437C72.6852 32.7944 72.6878 32.9438 72.6904 33.0945C72.7158 33.9744 72.5469 34.7926 71.8529 35.439C71.1046 36.1407 69.8172 36.2271 69.11 35.6147Z" fill="#77747D"/>
<path d="M43.9588 29.0063C43.9058 27.4069 43.4637 25.8795 42.3211 24.6199C41.2974 23.4909 40.0077 22.8019 38.5178 22.43C36.0107 21.8008 33.4718 21.8717 30.9278 22.1525C29.2456 22.3378 27.5943 22.7272 26.0134 23.3115C25.8039 23.3887 25.7354 23.49 25.7967 23.6952C25.9302 24.1559 26.0639 24.6203 26.1974 25.0798C26.2555 25.2406 26.293 25.4076 26.309 25.5771C26.572 26.2648 26.7313 26.9819 26.9519 27.6811C27.1724 28.3803 27.1677 28.4009 27.8987 28.147C29.3877 27.6073 30.962 27.3184 32.5524 27.2927C33.3292 27.2876 34.0925 27.378 34.8038 27.7201C35.6429 28.1252 36.2257 29.1569 36.0994 30.0455C36.0738 30.2341 35.9781 30.2888 35.799 30.2352C34.4971 29.8516 33.1549 29.7411 31.8055 29.7285C30.2051 29.713 28.6375 29.9189 27.192 30.6532C26.3922 31.0547 25.7069 31.6385 25.1961 32.3534C25.1079 32.4756 25.0044 32.5895 24.9086 32.7082L24.8504 32.8225C24.836 33.0061 24.7308 33.1599 24.671 33.331C24.0586 35.2 24.1219 37.0295 25.1807 38.7307C25.9553 39.9714 27.185 40.6771 28.6361 40.9822C30.4839 41.372 32.2913 41.2403 34.0035 40.3977C34.6823 40.0613 35.2998 39.6212 35.8319 39.0947C35.9158 39.0124 35.9924 38.8748 36.1377 38.9302C36.283 38.9855 36.2417 39.1346 36.2462 39.2491C36.263 39.7094 36.2736 40.1711 36.2867 40.6316C37.0169 40.6248 37.7461 40.6242 38.475 40.6102C40.372 40.5771 42.2684 40.538 44.1643 40.4928C44.1126 36.6649 44.0846 32.8341 43.9588 29.0063ZM32.5707 36.2525C31.5426 35.3709 31.8461 33.6326 33.1328 33.0808C34.0634 32.6822 35.0105 32.8068 35.9607 33.0314C36.0166 33.0464 36.0653 33.0794 36.0986 33.125C36.1318 33.1706 36.1476 33.2259 36.1433 33.2815C36.1459 33.4322 36.1485 33.5816 36.1512 33.7323C36.1753 34.6123 36.0076 35.4304 35.3136 36.0768C34.5641 36.7785 33.2792 36.8648 32.5707 36.2525Z" fill="#77747D"/>
<path d="M8.22493 20.7929C8.69415 20.7847 8.70774 20.7724 8.69953 20.3023C8.67676 18.9978 8.65401 17.6946 8.63125 16.3902C8.62197 15.8585 8.64667 15.8352 9.21124 15.8253L15.9799 15.7072C16.5896 15.6965 16.5909 15.6965 16.5803 15.0937C16.566 14.2715 16.5516 13.4493 16.5373 12.6259C16.5229 11.8025 16.6134 11.8817 15.7552 11.8943C13.5082 11.9335 11.2624 11.9727 9.01667 12.0119C8.61143 12.019 8.55912 11.9705 8.54998 11.5908C8.54085 11.2111 8.53666 10.8276 8.53001 10.4467C8.5225 10.0163 8.5497 9.99291 9.00764 9.98491L15.908 9.86447C16.4324 9.85531 16.4349 9.85527 16.4263 9.36219C16.4074 8.27878 16.3885 7.19377 16.3695 6.10715C16.3615 5.64783 16.35 5.63597 15.867 5.64319L10.5085 5.73673C9.86364 5.74798 9.86615 5.74794 9.83806 5.14546C9.83471 4.6027 9.69991 4.06831 9.44435 3.58461C8.82044 2.49569 7.7729 1.94236 6.60879 1.5406C6.40045 1.46827 6.28244 1.53786 6.22346 1.75354C6.11067 2.16121 6.03397 2.57726 5.99417 2.99725C5.96457 3.31493 5.84239 3.36168 5.57536 3.16254C5.3322 2.97339 5.06751 2.81134 4.78633 2.67946C3.36718 2.047 1.88936 2.07883 0.387524 2.31728C0.158498 2.35384 0.107033 2.49704 0.143083 2.69298C0.219568 3.06706 0.325846 3.43491 0.460978 3.79328C0.913027 5.02991 1.63052 6.08706 2.82459 6.76686C3.22651 7.00103 3.33496 7.24636 3.34203 7.65143C3.3675 9.75776 3.41557 11.8649 3.45233 13.971C3.49034 16.1483 3.52832 18.3243 3.56633 20.5016C3.57127 20.7849 3.66216 20.887 3.96699 20.8793C5.3894 20.8364 6.80473 20.8189 8.22493 20.7929Z" fill="#77747D"/>
<path d="M31.9641 8.90762C31.7137 8.21581 31.2849 7.59642 30.7179 7.1072C30.362 6.81532 29.9714 6.56509 29.554 6.36175C29.4781 6.32328 29.3809 6.29242 29.3445 6.21949C29.2712 6.22075 29.1982 6.21104 29.1281 6.1907C28.9107 6.1069 28.6887 6.03468 28.463 5.97439C28.434 5.96766 28.4049 5.95852 28.3759 5.94938C28.1239 5.89348 27.8894 5.75528 27.6203 5.79736L27.512 5.77875C26.7268 5.64108 25.9315 5.56182 25.1334 5.54169C22.8579 5.52835 20.5836 5.65729 18.3096 5.6608C18.0222 5.73215 17.8525 5.93168 17.8116 6.3195C17.7555 7.00861 17.742 7.70026 17.7712 8.3908C17.834 11.9894 17.8968 15.5893 17.9597 19.1891C17.9655 19.523 18.0652 19.8409 18.1022 20.1682C18.1101 20.2479 18.1485 20.3219 18.21 20.3759C18.2715 20.4298 18.3516 20.4599 18.4349 20.4603C19.815 20.602 21.2083 20.5777 22.5826 20.3879C22.8643 20.3492 22.9076 20.17 22.94 19.9403C23.112 18.7205 22.9639 17.499 22.9677 16.2786C22.9733 16.2338 22.9911 16.1912 23.0194 16.1551C23.0476 16.119 23.0853 16.0907 23.1285 16.0732C23.5843 15.8674 24.3341 16.0461 24.6109 16.4453C25.3833 17.5533 26.1841 18.6391 26.9502 19.7497C27.2077 20.1214 27.4972 20.3166 28.0001 20.2957C29.3871 20.239 30.7764 20.2364 32.1652 20.211C32.2589 20.2148 32.3527 20.2131 32.4462 20.2061C32.6716 20.1744 32.714 20.0905 32.589 19.9009C32.4936 19.7578 32.3871 19.621 32.283 19.483C31.3492 18.2298 30.4232 16.9701 29.505 15.7038C29.2967 15.418 29.3188 15.244 29.619 15.047C30.0455 14.7938 30.4475 14.5042 30.82 14.1819C31.3048 13.7358 31.6836 13.1944 31.9306 12.5948C32.0046 12.3752 32.0848 12.1567 32.1474 11.9325L32.1684 11.8393C32.1786 11.5995 32.2331 11.3634 32.3294 11.1419C32.3902 11.0275 32.3081 10.9264 32.3238 10.8212C32.3952 10.3062 32.1948 9.82614 32.1196 9.3306L32.0915 9.22739C32.0882 9.21672 32.0854 9.2059 32.0833 9.19497C32.0094 9.12872 31.9996 8.99865 31.9641 8.90762ZM26.0645 12.5078C25.1378 12.6952 24.1913 12.6093 23.2543 12.6365C23.0573 12.6399 23.0222 12.4994 23.0183 12.3463L22.9973 11.1408C22.9905 10.7502 22.9836 10.3592 22.9768 9.96774C22.9741 9.81343 23.0119 9.67891 23.2103 9.68148C24.1479 9.69164 25.0905 9.55098 26.0234 9.72403C26.8368 9.87384 27.2619 10.3584 27.2712 11.1084C27.2812 11.8269 26.8437 12.3543 26.0646 12.5126L26.0645 12.5078Z" fill="#77747D"/>
<path d="M32.0897 9.19247C32.0918 9.20341 32.0945 9.21423 32.0978 9.22489L32.126 9.32811C32.2011 9.82365 32.4015 10.3037 32.3302 10.8187C32.317 10.9239 32.3991 11.0249 32.3358 11.1394C32.2395 11.3609 32.1849 11.5971 32.1748 11.8368L32.1538 11.93C32.0912 12.1542 32.0109 12.3727 31.937 12.5923C31.69 13.1919 31.3112 13.7333 30.8264 14.1794C30.4538 14.5018 30.0519 14.7913 29.6254 15.0445C29.3189 15.2416 29.2967 15.412 29.5114 15.7013C30.432 16.9643 31.358 18.2241 32.2894 19.4805C32.3934 19.6185 32.5 19.7554 32.5954 19.8984C32.7242 20.0879 32.6779 20.1719 32.4526 20.2036C32.3591 20.2107 32.2652 20.2123 32.1716 20.2085C30.7827 20.2327 29.3935 20.2365 28.0065 20.2933C27.5048 20.3141 27.2128 20.119 26.9565 19.7472C26.1842 18.6368 25.3871 17.5508 24.6173 16.4428C24.3405 16.0436 23.5906 15.8649 23.1349 16.0707C23.0916 16.0883 23.054 16.1165 23.0257 16.1526C22.9975 16.1887 22.9797 16.2313 22.9741 16.2761C22.9703 17.4966 23.1184 18.718 22.9464 19.9378C22.914 20.1675 22.8707 20.3467 22.589 20.3854C21.2147 20.5752 19.8213 20.5995 18.4413 20.4578C18.3562 20.4602 18.2735 20.4315 18.2097 20.3776C18.1459 20.3236 18.1057 20.2485 18.0973 20.1671C18.0577 19.8398 17.9606 19.5219 17.9547 19.188C17.8919 15.5882 17.8291 11.9883 17.7662 8.38971C17.7371 7.69917 17.7506 7.00753 17.8066 6.31841C17.8476 5.93059 18.0173 5.73106 18.3047 5.65972L18.2231 5.66114C17.7023 5.66058 17.7012 5.67025 17.71 6.17297C17.7898 10.7469 17.8697 15.3212 17.9495 19.896C17.9619 20.6073 17.9619 20.6073 18.6934 20.5945L22.5475 20.5272C23.0732 20.518 23.0745 20.518 23.0671 20.0261C23.0477 18.9122 23.0283 17.7982 23.0088 16.6855C23.0061 16.53 22.9642 16.3571 23.1342 16.2443C23.8835 16.0359 24.2182 16.1543 24.6389 16.7487C25.447 17.8923 26.2663 19.0285 27.0719 20.1733C27.1349 20.2703 27.2253 20.348 27.3326 20.3974C27.4399 20.4467 27.5597 20.4657 27.6779 20.4521C29.3376 20.4147 30.9989 20.3942 32.6598 20.3579C32.7765 20.3559 32.9432 20.4109 32.996 20.2737C33.0403 20.1523 32.9131 20.0569 32.8424 19.9616C31.7824 18.5234 30.7206 17.0851 29.6572 15.6469C29.4567 15.3755 29.4678 15.2884 29.7661 15.1265C30.8137 14.5785 31.6387 13.707 32.1075 12.6532C32.1308 12.4143 32.2086 12.1832 32.3353 11.9763C32.3362 11.9594 32.3398 11.9427 32.3458 11.9267C32.4488 11.0442 32.4332 10.1528 32.2995 9.27444C32.2931 9.25898 32.2886 9.24288 32.2861 9.22643C32.2529 9.23599 32.2178 9.23789 32.1836 9.23199C32.1495 9.22609 32.1173 9.21255 32.0897 9.19247Z" fill="#77747D"/>
<path d="M27.6512 5.62922C26.8106 5.57154 25.9694 5.54763 25.1284 5.54181C25.9265 5.56194 26.7217 5.64119 27.507 5.77886L27.6152 5.79748C27.8894 5.75531 28.1189 5.8936 28.3709 5.9495C28.3999 5.95864 28.429 5.96778 28.4579 5.97451C28.6836 6.0348 28.9057 6.10701 29.1231 6.19082C29.1932 6.21116 29.2662 6.22087 29.3395 6.21961C29.3209 6.17653 29.3201 6.12828 29.3371 6.08458C29.3046 6.09006 29.2711 6.08807 29.2396 6.07877C29.208 6.06947 29.1792 6.05312 29.1555 6.03107C28.9109 5.9949 28.6758 5.91472 28.4623 5.79475C28.1826 5.79631 27.906 5.73985 27.6512 5.62922Z" fill="#77747D"/>
<path d="M29.3446 6.21949C29.381 6.29242 29.4719 6.32339 29.5542 6.36175C29.9715 6.56509 30.3622 6.81532 30.718 7.10721C31.2851 7.59643 31.7138 8.21581 31.9643 8.90762C31.9997 8.99866 32.0095 9.12752 32.0947 9.19236C32.08 9.14791 32.0765 9.10074 32.0844 9.05469C32.0923 9.00865 32.1115 8.96505 32.1403 8.92746C31.9009 8.2257 31.4831 7.59261 30.9247 7.08551C30.5024 6.6901 29.9981 6.4155 29.4853 6.15432C29.4553 6.17805 29.4223 6.19807 29.3872 6.21392C29.3732 6.21729 29.359 6.21916 29.3446 6.21949Z" fill="#77747D"/>
<path d="M29.3446 6.21954C29.3571 6.22049 29.3697 6.22027 29.3822 6.21888C29.4174 6.20303 29.4503 6.18301 29.4803 6.15928L29.3436 6.08931C29.3274 6.13142 29.3278 6.17771 29.3446 6.21954Z" fill="#77747D"/>
<path d="M32.1351 8.92755C32.1063 8.96514 32.0871 9.00873 32.0792 9.05478C32.0713 9.10082 32.0748 9.148 32.0896 9.19244C32.1165 9.21239 32.148 9.22606 32.1814 9.23238C32.2148 9.2387 32.2493 9.2375 32.2822 9.22888C32.2118 9.14202 32.1624 9.04111 32.1377 8.93353L32.1351 8.92755Z" fill="#77747D"/>
<path d="M28.4698 5.79464C28.2165 5.67224 27.9345 5.61485 27.6511 5.62804C27.9244 5.68116 28.2 5.72459 28.4698 5.79464Z" fill="#77747D"/>
<path d="M28.47 5.7958C28.695 5.88714 28.9451 5.9081 29.1619 6.03094C28.9632 5.86558 28.7166 5.82768 28.4688 5.79462L28.47 5.7958Z" fill="#77747D"/>
<path d="M32.3327 11.974C32.2588 12.2008 32.1925 12.4286 32.1048 12.6509C32.2411 12.4482 32.3197 12.2148 32.3327 11.974Z" fill="#77747D"/>
<path d="M32.3327 11.974C32.2059 12.1808 32.1281 12.4119 32.1048 12.6509C32.1925 12.4286 32.2588 12.2008 32.3327 11.974Z" fill="#77747D"/>
<path d="M39.0313 14.0977C39.1836 14.0607 39.341 14.0478 39.4975 14.0594L47.8281 13.914C47.9423 13.912 48.0577 13.91 48.1732 13.908C48.5179 13.8851 48.6229 13.7892 48.631 13.4646C48.6686 11.9529 48.4535 10.483 47.7855 9.09941C46.874 7.20994 45.3767 5.98069 43.2756 5.46143C41.54 5.03347 39.7969 5.03978 38.0897 5.59175C36.3796 6.12197 34.9403 7.25324 34.06 8.75893C33.2946 10.0135 32.9272 11.4551 33.0029 12.9065C33.0288 13.4572 33.0221 14.0084 33.1308 14.5528C33.1569 14.685 33.1858 14.828 33.0521 14.934C33.2334 14.9707 33.2589 15.133 33.3014 15.2698C33.6092 16.2627 34.1392 17.1786 34.8542 17.9536C35.6348 18.7814 36.6096 19.4183 37.6979 19.8118C39.0876 20.3422 40.546 20.4916 42.0315 20.3946C43.8955 20.2728 45.5745 19.6839 47.0058 18.4988C47.324 18.2229 47.6256 17.9297 47.9092 17.6208C48.1557 17.3633 48.1431 17.2176 47.8569 16.9983C47.1802 16.4795 46.4716 16.0022 45.7912 15.4883C45.6448 15.3703 45.5046 15.2521 45.3486 15.1535C45.0376 14.9516 44.9686 14.9564 44.6705 15.2052C44.1152 15.6719 43.5188 16.0863 42.7978 16.2689C41.4584 16.6083 40.2548 16.3905 39.2684 15.3851C39.1392 15.2814 39.053 15.1366 39.0253 14.9769C39.0351 14.9336 39.0532 14.8924 39.0784 14.8554C39.0502 14.8221 39.0208 14.7889 38.9951 14.7543C38.8478 14.6556 38.8473 14.482 38.8617 14.3032L38.9001 14.2724L38.9137 14.2637C38.8306 14.1759 38.949 14.128 39.0313 14.0977ZM38.7035 11.1368C38.8587 10.4636 39.1378 9.84488 39.7674 9.46367C40.787 8.8429 42.1141 9.23941 42.6684 10.2946C42.8006 10.5337 42.8975 10.7893 42.9565 11.0541C43.0307 11.4218 42.9436 11.5367 42.5573 11.5519C41.9841 11.5691 41.4106 11.5719 40.836 11.5819C40.2627 11.5919 39.6893 11.602 39.1159 11.612C38.7157 11.6153 38.6246 11.506 38.7086 11.1367L38.7035 11.1368Z" fill="#77747D"/>
<path d="M33.1406 14.5502C33.0282 14.0059 33.0386 13.4546 33.0127 12.9039C32.937 11.4525 33.3045 10.0109 34.0698 8.75636C34.9501 7.25067 36.3894 6.1194 38.0995 5.58917C39.8067 5.03841 41.5498 5.03089 43.2854 5.45886C45.3865 5.97812 46.8901 7.20484 47.7953 9.09683C48.4583 10.4805 48.6785 11.9503 48.6408 13.462C48.6327 13.7866 48.5227 13.8826 48.183 13.9054C48.0675 13.9074 47.9521 13.9094 47.8379 13.9114L39.5073 14.0568C39.3508 14.0452 39.1934 14.0582 39.0411 14.0951C38.9538 14.1256 38.8354 14.1735 38.9187 14.2685C39.0573 14.1599 39.2274 14.1944 39.3842 14.1916C42.3191 14.1404 45.2537 14.0892 48.1878 14.0379C48.2919 14.0361 48.3961 14.0343 48.5002 14.0325C48.7111 14.0385 48.8086 13.9415 48.8051 13.7414C48.7997 13.4303 48.7942 13.1193 48.7888 12.8095C48.7675 11.5846 48.5558 10.3872 48.0455 9.26492C46.9283 6.80863 44.9564 5.42366 42.186 5.10059C40.2544 4.87503 38.3852 5.0596 36.6805 6.04084C34.2463 7.4376 33.0319 9.54748 32.8478 12.2291C32.8062 13.1316 32.864 14.0356 33.0204 14.9262C33.0341 14.9273 33.0476 14.9299 33.0607 14.9339C33.1931 14.8255 33.1642 14.6825 33.1406 14.5502Z" fill="#77747D"/>
<path d="M39.0352 14.9779C39.0629 15.1376 39.1491 15.2824 39.2783 15.3861C40.2584 16.3917 41.462 16.6094 42.8077 16.27C43.5286 16.0874 44.1251 15.673 44.6804 15.2062C44.976 14.9599 45.0526 14.9585 45.3585 15.1546C45.5146 15.2568 45.6548 15.3773 45.801 15.4893C46.4814 16.0033 47.19 16.4805 47.8668 16.9993C48.153 17.2186 48.1668 17.3643 47.919 17.6219C47.6355 17.9308 47.3339 18.2239 47.0157 18.4999C45.5843 19.6813 43.9091 20.2701 42.0414 20.3956C40.5559 20.4927 39.1 20.3432 37.7077 19.8128C36.6195 19.4194 35.6447 18.7824 34.8641 17.9546C34.1491 17.1797 33.6191 16.2637 33.3113 15.2708C33.2687 15.1341 33.2433 14.9717 33.0619 14.9351L33.0544 14.9352C33.0457 14.9365 33.0368 14.9367 33.0281 14.9357C33.0796 15.0819 33.1323 15.2269 33.1788 15.3732C33.6818 16.9442 34.6215 18.2169 36.043 19.1304C38.414 20.6567 41.0342 20.8618 43.74 20.2852C45.5155 19.9068 46.9658 18.9481 48.1346 17.606C48.4361 17.2607 48.4352 17.2137 48.0666 16.944C47.1538 16.2749 46.2325 15.6181 45.3309 14.9416C45.0765 14.7483 44.9246 14.7461 44.6851 14.9734C43.9555 15.6651 43.1145 16.1597 42.0582 16.2529C40.8577 16.3571 39.6537 15.827 39.1589 14.9468L39.0909 14.8612C39.0653 14.8966 39.0464 14.9362 39.0352 14.9779Z" fill="#77747D"/>
<path d="M33.0521 14.9376L33.0596 14.9375C33.0465 14.9335 33.033 14.9309 33.0193 14.9297C33.0199 14.9358 33.02 14.9418 33.0196 14.9478C33.031 14.9463 33.042 14.9429 33.0521 14.9376Z" fill="#77747D"/>
<path d="M39.0052 14.7614C38.9433 14.6984 38.901 14.62 38.8831 14.5351C38.8652 14.4502 38.8724 14.3621 38.9039 14.2808L38.8656 14.3116C38.8574 14.489 38.8579 14.6627 39.0052 14.7614Z" fill="#77747D"/>
<path d="M10.7484 33.0579C10.7417 33.0452 10.738 33.0313 10.7378 33.017C10.7375 33.0028 10.7407 32.9887 10.747 32.9759C10.7163 33.0057 10.6812 33.0311 10.6429 33.0513C10.6782 33.0465 10.7141 33.0488 10.7484 33.0579Z" fill="#77747D"/>
<path d="M22.7708 27.9989C22.1955 26.5669 21.175 25.3405 19.8481 24.4864C18.4414 23.5619 16.8533 23.0988 15.1861 22.8529C14.1742 22.7206 13.1543 22.6522 12.1329 22.6481C9.62207 22.6003 7.12553 22.7235 4.62201 22.7346C4.40621 22.7384 4.17229 22.7099 4.03563 22.933C4.01211 23.0238 3.99236 23.1146 3.97386 23.2054C4.00845 25.1865 4.04301 27.1669 4.07757 29.1464C4.08352 29.4876 4.08069 29.8289 4.09541 30.1688C4.11013 30.5086 4.22885 30.6235 4.57893 30.6198C6.37569 30.5973 8.17397 30.5659 9.97376 30.5256C10.3163 30.5196 10.3868 30.3894 10.2074 30.1043C9.94932 29.7012 9.67028 29.3165 9.43355 28.9119C9.34305 28.7603 9.23489 28.603 9.36131 28.4404C9.48774 28.2778 9.70434 28.3198 9.88227 28.3758C10.5133 28.5758 11.1448 28.8048 11.776 29.0205C13.8391 29.7298 15.8961 30.4552 17.9472 31.1968C18.1474 31.2543 18.34 31.3339 18.5211 31.434C18.7368 31.5702 18.7473 31.7412 18.5429 31.8931C18.3571 32.0266 18.1366 32.1081 17.9057 32.1285C17.8643 32.2004 17.7631 32.2263 17.6859 32.2614C17.3386 32.423 16.9743 32.5488 16.6178 32.6901C14.6598 33.4695 12.69 34.2166 10.7201 34.9637C10.4469 35.0887 10.1669 35.1995 9.88132 35.2955C9.72642 35.3368 9.57005 35.3661 9.44719 35.2295C9.32432 35.093 9.39206 34.9471 9.47257 34.8142C9.78368 34.3035 10.091 33.7917 10.4135 33.288C10.4525 33.21 10.5067 33.1398 10.5731 33.0814C10.4347 33.1096 10.2931 33.1198 10.1519 33.1117C8.43948 33.1476 6.72684 33.1714 5.01555 33.2013C4.22765 33.2151 4.16474 33.2777 4.17808 34.042L4.28632 40.2435C4.28441 40.3641 4.28944 40.4848 4.30141 40.605C4.34034 40.8937 4.46153 41.0062 4.7682 41.0322C4.90361 41.0399 5.03936 41.0403 5.17484 41.0335C7.67027 40.9899 10.1644 40.9464 12.6599 40.9029C12.7781 40.8893 12.8975 40.8873 13.0162 40.8966L13.1052 40.8951C14.2752 40.7673 15.4409 40.6131 16.5774 40.2966C18.8327 39.6543 20.7308 38.5358 22.0452 36.6159C22.6235 35.7425 23.0283 34.7737 23.239 33.7587C23.2475 33.6663 23.2691 33.5755 23.3033 33.4887L23.3134 33.4174C23.5672 31.5678 23.4803 29.752 22.7708 27.9989Z" fill="#77747D"/>
<path d="M3.97354 23.1898L3.97381 23.2054C3.99231 23.1147 4.01206 23.0239 4.03557 22.933C4.17224 22.7099 4.40863 22.736 4.62195 22.7346C7.13175 22.7234 9.62703 22.6003 12.1328 22.6482C13.1542 22.6522 14.1742 22.7206 15.1861 22.8529C16.8532 23.0988 18.4413 23.5619 19.848 24.4864C21.175 25.3405 22.1955 26.5669 22.7707 27.9989C23.4803 29.752 23.5672 31.5679 23.3007 33.4164L23.2907 33.4877C23.3107 33.4542 23.34 33.4267 23.3754 33.4084C23.4108 33.3901 23.4508 33.3817 23.4909 33.3841C23.5177 33.0448 23.5481 32.7042 23.5723 32.3649C23.6849 30.7603 23.5042 29.1848 22.826 27.7134C21.7107 25.2908 19.7098 23.8316 17.0979 23.0969C15.2465 22.5745 13.3418 22.4582 11.4235 22.4881C9.08154 22.529 6.74253 22.5698 4.40644 22.6106C4.20772 22.6047 4.00898 22.6232 3.81503 22.6655C4.00065 22.8022 3.9703 23.0041 3.97354 23.1898Z" fill="#77747D"/>
<path d="M17.893 32.124C18.1239 32.1035 18.3444 32.022 18.5302 31.8885C18.7346 31.7366 18.7241 31.5656 18.5084 31.4295C18.3273 31.3293 18.1347 31.2497 17.9345 31.1923C15.881 30.4547 13.8239 29.7292 11.7633 29.0159C11.132 28.8002 10.5106 28.5711 9.86956 28.3712C9.69163 28.3153 9.49107 28.2573 9.3486 28.4358C9.20614 28.6144 9.33034 28.7557 9.42084 28.9073C9.66392 29.3167 9.94799 29.7012 10.1947 30.0997C10.3741 30.3848 10.3035 30.5139 9.96104 30.521C8.16456 30.5596 6.36628 30.591 4.56621 30.6152C4.21115 30.6214 4.09991 30.5028 4.0827 30.1642C4.0655 29.8256 4.07081 29.483 4.06486 29.1419C4.03027 27.1607 3.99571 25.1804 3.96115 23.2008C3.89256 23.5208 3.85871 23.8467 3.86015 24.1734C3.88612 26.2363 3.93217 28.2988 3.96067 30.3629C3.97295 30.4548 3.97457 30.5478 3.96551 30.6402C4.00891 30.754 4.11817 30.7581 4.40924 30.753L9.64222 30.6617C9.90318 30.6571 10.1641 30.6526 10.4251 30.648C10.6334 30.6444 10.7266 30.5933 10.5786 30.38C10.2529 29.9142 9.93464 29.4398 9.63513 28.9614C9.54739 28.8243 9.3377 28.6736 9.46295 28.5158C9.60416 28.3373 9.81675 28.5096 9.97835 28.5647C12.47 29.4321 14.9592 30.304 17.446 31.1803C17.7112 31.2733 17.9775 31.3603 18.2379 31.4631C18.3465 31.5058 18.5114 31.5295 18.5014 31.678C18.4935 31.7987 18.351 31.8326 18.245 31.8718C18.139 31.911 18.0079 31.9495 17.8894 31.9878C17.8993 32.0091 17.9047 32.0321 17.9053 32.0555C17.906 32.0789 17.9018 32.1021 17.893 32.124Z" fill="#77747D"/>
<path d="M3.97341 30.3675C3.93739 28.3035 3.90137 26.2408 3.8729 24.1779C3.87145 23.8513 3.90531 23.5254 3.9739 23.2054L3.97363 23.1897C3.97036 23.0029 4.00074 22.8021 3.81883 22.6618C3.86347 25.2192 3.90811 27.7766 3.95275 30.3341C3.94672 30.4384 3.95659 30.5431 3.98202 30.6447C3.98983 30.5522 3.98694 30.4593 3.97341 30.3675Z" fill="#77747D"/>
<path d="M23.2905 33.4841C23.2563 33.5709 23.2346 33.6618 23.2262 33.7542C23.0155 34.7691 22.6107 35.7379 22.0323 36.6114C20.718 38.5325 18.8225 39.6545 16.5646 40.2921C15.4281 40.6134 14.2623 40.7628 13.0924 40.8905L13.0033 40.8921C13.0477 40.8991 13.09 40.9148 13.1278 40.9382C13.1655 40.9616 13.1979 40.9922 13.2228 41.0281L14.3072 40.8886C16.1857 40.6568 17.9601 40.1495 19.5606 39.1629C21.1704 38.1845 22.3924 36.7154 23.0306 34.9913C23.1652 34.6086 23.2769 34.2189 23.3654 33.8241C23.3267 33.7768 23.2997 33.7215 23.2867 33.6626C23.2737 33.6036 23.275 33.5426 23.2905 33.4841Z" fill="#77747D"/>
<path d="M23.4907 33.3805C23.4506 33.378 23.4105 33.3864 23.3751 33.4047C23.3397 33.4231 23.3104 33.4505 23.2904 33.4841C23.2735 33.5438 23.2715 33.6064 23.2846 33.667C23.2976 33.7275 23.3254 33.7842 23.3655 33.8325C23.4043 33.6811 23.4443 33.5296 23.4907 33.3805Z" fill="#77747D"/>
<path d="M4.547 41.1627C6.61837 41.1265 8.68689 41.0711 10.7624 41.0542C11.5153 41.0507 12.2563 40.9365 13.0035 40.8945C12.8848 40.8851 12.7655 40.8872 12.6472 40.9007C10.1516 40.937 7.6576 40.9878 5.16217 41.0313C5.02669 41.0381 4.89094 41.0377 4.75553 41.03C4.44886 41.004 4.32767 40.8915 4.28874 40.6028C4.27677 40.4827 4.27174 40.362 4.27365 40.2413L4.16549 34.0446C4.15215 33.2803 4.21505 33.2177 5.00295 33.204C6.71424 33.1741 8.42679 33.1442 10.1393 33.1143C10.2805 33.1224 10.4221 33.1123 10.5605 33.084C10.5848 33.066 10.6136 33.0543 10.644 33.05C10.6823 33.0299 10.7174 33.0045 10.7481 32.9746C8.58791 32.9557 6.42943 33.0343 4.27016 33.0672C4.04308 33.0712 4.00292 33.2154 4.00606 33.395C4.04964 35.8922 4.09322 38.3885 4.13678 40.884C4.13941 41.0347 4.18365 41.1244 4.28979 41.166C4.37535 41.1589 4.4613 41.1578 4.547 41.1627Z" fill="#77747D"/>
<path d="M13.0034 40.8969C12.2512 40.9413 11.5165 41.0555 10.7623 41.0566C8.69049 41.0686 6.62188 41.1192 4.54692 41.1651C4.46078 41.1605 4.37441 41.162 4.28848 41.1696C4.34125 41.1877 4.39731 41.1953 4.45327 41.192C4.82965 41.1854 5.20616 41.1861 5.58255 41.1795L13.223 41.0401C13.1988 41.0029 13.1668 40.9709 13.129 40.9462C13.0912 40.9215 13.0484 40.9047 13.0034 40.8969Z" fill="#77747D"/>
<path d="M10.5605 33.0804C10.4941 33.1389 10.4399 33.209 10.401 33.287C10.0784 33.7907 9.77112 34.3026 9.46001 34.8133C9.3795 34.9461 9.30539 35.0861 9.43463 35.2286C9.56387 35.371 9.71387 35.3358 9.86877 35.2945C10.1544 35.1985 10.4344 35.0878 10.7076 34.9627C12.6774 34.212 14.6472 33.4649 16.6053 32.6891C16.9617 32.5478 17.326 32.4221 17.6733 32.2604C17.7505 32.2253 17.8517 32.1994 17.8931 32.1276L17.8668 32.128C17.8245 32.1147 17.7859 32.0923 17.7539 32.0625C17.6917 32.0925 17.6295 32.1225 17.5659 32.1466C15.7884 32.8384 14.0104 33.5291 12.232 34.2186L9.85734 35.144C9.76012 35.1819 9.65804 35.2295 9.56502 35.1491C9.47201 35.0687 9.52726 34.999 9.56997 34.9295L10.7472 33.0603C10.7139 33.0499 10.6789 33.046 10.6441 33.0488C10.6172 33.0616 10.5892 33.0722 10.5605 33.0804Z" fill="#77747D"/>
<path d="M17.8667 32.128L17.893 32.1276C17.9146 32.0859 17.9183 32.0377 17.9032 31.9935L17.7539 32.0661C17.7862 32.0946 17.8247 32.1158 17.8667 32.128Z" fill="#77747D"/>
<path d="M10.5604 33.0804C10.5892 33.0714 10.6171 33.06 10.6439 33.0464C10.6135 33.0506 10.5847 33.0623 10.5604 33.0804Z" fill="#77747D"/>
<path d="M10.7482 33.0531C10.7477 33.0253 10.7472 32.9988 10.7467 32.9711C10.7404 32.9839 10.7373 32.998 10.7375 33.0122C10.7378 33.0265 10.7414 33.0404 10.7482 33.0531Z" fill="#77747D"/>
<path d="M56.3268 10.2346C55.9234 10.1307 55.5176 10.0317 55.2086 9.73076C55.1271 9.65903 55.0642 9.5699 55.025 9.47054C54.9858 9.37117 54.9714 9.26433 54.983 9.15859C54.9946 9.05285 55.0318 8.95116 55.0916 8.86168C55.1515 8.7722 55.2323 8.69741 55.3277 8.64334C55.5277 8.51263 55.7592 8.43343 56.0001 8.41332C57.3416 8.33787 58.6805 8.59304 59.8897 9.15461C60.0238 9.21378 60.2302 9.24635 60.2088 9.45776C60.3185 9.3437 60.4351 9.41281 60.5567 9.4746C60.9479 9.67158 61.062 9.66235 61.3067 9.30474C61.8712 8.49776 62.4738 7.71665 63.0217 6.90031C63.1967 6.6416 63.1633 6.52521 62.8613 6.33632C62.0159 5.81804 61.0893 5.43358 60.1168 5.19759C58.594 4.80932 57.0408 4.76287 55.4879 4.87922C54.0929 4.98437 52.7848 5.3931 51.6793 6.26379C50.6381 7.08391 50.1413 8.16948 50.0693 9.43698C50.0153 10.0085 50.0838 10.5843 50.2708 11.129C50.6036 12.0047 51.2576 12.5939 52.0614 13.0562C52.2097 13.1428 52.4039 13.1913 52.4549 13.381C52.4873 13.3498 52.53 13.3303 52.5756 13.3257C52.6212 13.3212 52.6671 13.3319 52.7054 13.3561C54.1988 13.9993 55.8089 14.2136 57.3895 14.5333C57.7503 14.5944 58.0993 14.7079 58.4245 14.8698C58.8235 15.0811 58.9839 15.3521 58.9275 15.716C58.8919 15.8845 58.8032 16.0383 58.6735 16.1567C58.5437 16.275 58.3792 16.3521 58.2023 16.3775C57.2821 16.5168 56.3437 16.4989 55.4304 16.3246C54.2889 16.1177 53.1988 15.7051 52.2177 15.1084C51.9932 14.9712 51.8069 15.0118 51.6408 15.2053C50.9999 15.9461 50.3654 16.6928 49.7473 17.4512C49.5017 17.7558 49.5203 17.8869 49.8568 18.1162C50.8792 18.7983 52.0201 19.2998 53.226 19.5974C54.5661 19.9442 55.9335 20.0554 57.3155 20.0711C57.441 20.0689 57.5924 20.0469 57.6938 20.1766C57.7988 20.0048 57.9934 20.0086 58.1613 19.9972C58.8168 19.9481 59.4641 19.8255 60.0902 19.6319C61.2961 19.2684 62.3385 18.6629 63.0763 17.6503C63.5713 16.971 63.8352 16.1613 63.8316 15.3326C63.8507 14.8522 63.8031 14.3716 63.6899 13.9036C63.4378 12.9794 62.8168 12.3439 62.0114 11.8551C61.074 11.2865 60.0198 11.001 58.9524 10.7483C58.253 10.5821 57.5387 10.4957 56.8393 10.3306C56.7271 10.3048 56.5093 10.3363 56.5695 10.117L56.5494 10.1174C56.5324 10.1588 56.5008 10.1932 56.4601 10.2147C56.4195 10.2361 56.3723 10.2431 56.3268 10.2346Z" fill="#77747D"/>
<path d="M52.0763 13.0583C51.2662 12.5901 50.6122 12.007 50.2857 11.1312C50.0988 10.5865 50.0302 10.0106 50.0842 9.43913C50.1562 8.17164 50.6531 7.08606 51.6942 6.26594C52.7997 5.39525 54.1078 4.98652 55.5028 4.88137C57.0557 4.76502 58.609 4.81148 60.1318 5.19974C61.1043 5.43573 62.0309 5.82019 62.8762 6.33848C63.1782 6.52736 63.2116 6.64375 63.0367 6.90246C62.4836 7.71648 61.8811 8.5 61.3217 9.30689C61.0769 9.6645 60.9591 9.675 60.5716 9.47676C60.445 9.41505 60.3334 9.34585 60.2237 9.45992C60.2239 9.47197 60.2241 9.48403 60.2243 9.49729C60.4217 9.51796 60.567 9.64084 60.7206 9.74067C60.958 9.89691 61.1205 9.86393 61.2871 9.62827C61.9501 8.69215 62.6229 7.76188 63.3054 6.83748C63.4549 6.63348 63.4339 6.50601 63.2256 6.36855C62.6695 5.99549 62.0708 5.68469 61.4412 5.44219C59.4325 4.68133 57.3406 4.54901 55.2184 4.76212C54.0255 4.86295 52.8812 5.26529 51.9017 5.92827C50.2037 7.08305 49.6087 8.94214 50.0351 10.8642C50.1996 11.5542 50.5959 12.1727 51.1627 12.6245C51.5449 12.9531 51.9982 13.1863 52.432 13.4465C52.4425 13.4262 52.4556 13.4073 52.4712 13.3903C52.4188 13.1935 52.2247 13.145 52.0763 13.0583Z" fill="#77747D"/>
<path d="M57.7114 20.1823C57.6163 20.0526 57.4699 20.078 57.3331 20.0768C55.9523 20.0611 54.5837 19.9499 53.2436 19.6031C52.0377 19.3055 50.8968 18.804 49.8744 18.1219C49.5378 17.8926 49.5181 17.7664 49.7649 17.457C50.3792 16.6985 51.0175 15.9518 51.6584 15.211C51.8244 15.0176 52.0107 14.9769 52.2352 15.1141C53.2164 15.7108 54.3065 16.1234 55.4479 16.3303C56.3612 16.5046 57.2996 16.5225 58.2199 16.3832C58.3967 16.3579 58.5613 16.2808 58.691 16.1624C58.8208 16.044 58.9095 15.8902 58.945 15.7218C59.0014 15.359 58.8411 15.0868 58.4421 14.8755C58.1169 14.7136 57.7679 14.6002 57.4071 14.539C55.8265 14.2193 54.2164 14.005 52.723 13.3618C52.6846 13.3376 52.6388 13.3269 52.5932 13.3315C52.5475 13.336 52.5049 13.3555 52.4724 13.3867C52.4775 13.4036 52.4812 13.4209 52.4834 13.4383C52.4834 13.4383 52.4835 13.4456 52.4836 13.4492C52.6009 13.4723 52.7143 13.5109 52.8206 13.5639C53.33 13.7695 53.8544 13.9393 54.3895 14.072C55.4348 14.3576 56.5164 14.4847 57.5735 14.7255C57.8917 14.7851 58.1972 14.8951 58.4777 15.051C58.7137 15.1952 58.8603 15.3964 58.8038 15.682C58.7824 15.8068 58.7233 15.9229 58.6339 16.0158C58.5445 16.1087 58.4287 16.1743 58.3009 16.2045C58.1212 16.2583 57.9356 16.2915 57.7479 16.3034C55.815 16.4307 53.8923 15.9518 52.2686 14.9387C51.888 14.7041 51.8879 14.6969 51.5953 15.0457C50.8833 15.8854 50.1828 16.7357 49.467 17.5731C49.2948 17.7739 49.3009 17.9064 49.522 18.0642C51.2517 19.305 53.2287 19.9048 55.3498 20.1247C56.1297 20.1959 56.9134 20.2225 57.6967 20.2043C57.7007 20.1965 57.7056 20.1891 57.7114 20.1823Z" fill="#77747D"/>
<path d="M52.4698 13.3831C52.4543 13.4001 52.4411 13.419 52.4307 13.4392C52.4459 13.4401 52.4611 13.4423 52.4759 13.4457C52.4759 13.4457 52.4758 13.4385 52.4758 13.4348C52.4752 13.4175 52.4732 13.4002 52.4698 13.3831Z" fill="#77747D"/>
<path d="M56.8506 10.3413C57.55 10.5063 58.2643 10.5928 58.9638 10.759C60.0312 11.0117 61.0853 11.2972 62.0227 11.8657C62.8281 12.3546 63.4491 12.9901 63.7012 13.9143C63.8144 14.3823 63.862 14.8629 63.8429 15.3433C63.8465 16.172 63.5827 16.9817 63.0877 17.661C62.3522 18.6687 61.3074 19.2743 60.1015 19.6426C59.4755 19.8362 58.8281 19.9588 58.1726 20.0079C58.0047 20.0193 57.8101 20.0142 57.7052 20.1873C57.7063 20.1949 57.7065 20.2026 57.7056 20.2102L58.332 20.1474C59.5622 20.0259 60.7365 19.7159 61.7793 19.0622C63.3533 18.07 64.0793 16.6632 63.9937 14.8522C63.9375 13.6473 63.454 12.691 62.4475 11.9717C61.4409 11.2524 60.2413 10.8995 59.028 10.6289C58.2128 10.4465 57.3907 10.2957 56.5696 10.1327C56.5206 10.3434 56.7384 10.3155 56.8506 10.3413Z" fill="#77747D"/>
<path d="M57.7118 20.2052C57.7127 20.1976 57.7126 20.1899 57.7114 20.1823C57.7049 20.1901 57.6996 20.1988 57.6955 20.2079L57.7118 20.2052Z" fill="#77747D"/>
<path d="M59.8896 9.15705C58.6804 8.59548 57.3415 8.34031 56 8.41576C55.7591 8.43587 55.5276 8.51507 55.3275 8.64577C55.2322 8.69985 55.1514 8.77463 55.0915 8.86412C55.0317 8.9536 54.9945 9.05529 54.9829 9.16103C54.9713 9.26677 54.9857 9.37361 55.0249 9.47298C55.064 9.57234 55.1269 9.66147 55.2085 9.7332C55.5174 10.0341 55.9233 10.1332 56.3267 10.2371C56.3729 10.2489 56.4221 10.2443 56.4651 10.224C56.5081 10.2038 56.5421 10.1693 56.5607 10.1268C56.3232 10.0983 56.0908 10.0391 55.8699 9.95078C55.317 9.76627 55.0891 9.51218 55.1436 9.1796C55.198 8.84701 55.539 8.61073 56.0728 8.56041C56.5933 8.52423 57.1163 8.55239 57.6292 8.64419C58.529 8.78767 59.3929 9.02945 60.1852 9.48714C60.1921 9.47743 60.1999 9.4684 60.2086 9.4602C60.23 9.24879 60.0299 9.21611 59.8896 9.15705Z" fill="#77747D"/>
<path d="M60.1853 9.48715L60.2055 9.49765C60.2053 9.48439 60.2051 9.47234 60.2049 9.46028C60.1975 9.46863 60.1909 9.47762 60.1853 9.48715Z" fill="#77747D"/>
</g>
<defs>
<clipPath id="clip0_10092_17857">
<rect width="80" height="40" fill="white" transform="translate(0.115723 1.62256) rotate(-1)"/>
</clipPath>
</defs>
</svg>
