<svg width="42" height="42" viewBox="0 0 42 42" fill="none" xmlns="http://www.w3.org/2000/svg">
<circle cx="21.2938" cy="21.0454" r="20" transform="rotate(-1 21.2938 21.0454)" fill="#77747D"/>
<path d="M11.8603 26.0132L11.7904 22.0085C11.7706 20.8707 12.491 20.1416 13.4722 20.1244C14.4535 20.1073 15.1053 20.7975 15.123 21.8103L15.1954 25.9565L16.6763 25.9307L16.5985 21.4729C16.571 19.8987 15.412 18.7026 13.7445 18.7317C12.6383 18.751 11.9152 19.3251 11.6577 19.7511L11.6435 18.9415L10.256 18.9657L10.3795 26.0421L11.8604 26.0162L11.8603 26.0132Z" fill="white"/>
<path d="M22.2131 26.0041C24.3803 25.9663 25.9882 24.3334 25.9514 22.228C25.9147 20.1225 24.2508 18.5467 22.0836 18.5846C19.9164 18.6224 18.3085 20.2568 18.3453 22.3607C18.382 24.4647 20.0625 26.0416 22.2131 26.0041ZM22.1881 24.5699C20.8938 24.5925 19.9273 23.6428 19.9044 22.3335C19.8816 21.0242 20.8159 20.0414 22.1084 20.0038C23.3864 19.9965 24.3694 20.9458 24.3923 22.2552C24.4151 23.5645 23.4658 24.5476 22.1881 24.5699Z" fill="white"/>
<path d="M31.175 25.8477C32.5626 25.8235 33.7206 25.1484 34.3567 24.0774L33.1735 23.3032C32.7804 23.98 32.0081 24.415 31.1503 24.43C30.1209 24.4479 29.1279 23.7954 28.9041 22.6145L34.7178 22.513C34.9266 20.1564 33.2428 18.3913 30.9974 18.4305C28.752 18.4697 27.2709 20.2117 27.3057 22.2058C27.3405 24.1999 28.9763 25.8876 31.1736 25.8492L31.175 25.8477ZM28.9324 21.4744C29.1496 20.5508 29.885 19.8198 31.0243 19.7999C32.1636 19.7801 33.0024 20.5753 33.1418 21.4009L28.9339 21.4743L28.9324 21.4744Z" fill="white"/>
<path d="M17.9079 17.6684C19.9044 17.6336 21.4946 15.9868 21.4598 13.9904C21.4249 11.9939 19.7782 10.4036 17.7817 10.4385C15.7852 10.4733 14.195 12.1201 14.2298 14.1165C14.2647 16.113 15.9114 17.7033 17.9079 17.6684Z" fill="white"/>
<path d="M17.85 31.7738C19.0859 31.7523 20.0704 30.7328 20.0488 29.4969C20.0272 28.2609 19.0078 27.2765 17.7718 27.298C16.5359 27.3196 15.5514 28.339 15.573 29.575C15.5946 30.811 16.614 31.7954 17.85 31.7738Z" fill="white"/>
<path d="M25.8868 18.5302C26.6473 18.517 27.2531 17.8897 27.2398 17.1292C27.2265 16.3686 26.5993 15.7629 25.8387 15.7761C25.0782 15.7894 24.4724 16.4167 24.4857 17.1772C24.499 17.9378 25.1263 18.5435 25.8868 18.5302Z" fill="white"/>
</svg>
