<svg width="237" height="43" viewBox="0 0 237 43" fill="none" xmlns="http://www.w3.org/2000/svg">
<g clip-path="url(#clip0_10092_17910)">
<path fill-rule="evenodd" clip-rule="evenodd" d="M58.2263 5.54924C61.369 10.9875 62.8243 17.2372 62.4074 23.5044C61.9906 29.7715 59.7204 35.7734 55.8852 40.7476L38.9478 41.0432L44.0008 31.733L37.1042 31.8534L44.9832 17.3889L51.9194 17.2679L58.2266 5.56504L58.2263 5.54924ZM25.3915 41.2799L8.12229 41.5813C4.04307 36.7666 1.51543 30.8308 0.871344 24.5534C0.227256 18.2759 1.49684 11.9505 4.51335 6.40778L16.0551 25.6698L28.0273 3.95064L46.1972 3.63348L25.3992 41.2639L25.3915 41.2799Z" fill="#77747D"/>
<path d="M72.813 23.146C72.6394 13.2 77.5092 8.3341 85.6461 8.19207C93.783 8.05004 98.8118 12.7432 98.9854 22.6892C99.159 32.6352 94.2566 37.4464 86.1592 37.5877C78.0618 37.729 72.9849 32.9972 72.813 23.146ZM75.7517 23.0947C75.8945 31.2712 79.6912 35.1007 86.1139 34.9886C92.5365 34.8765 96.1894 30.9169 96.0467 22.7405C95.9039 14.5641 92.1062 10.6792 85.6915 10.7911C79.2767 10.9031 75.6082 14.8709 75.7517 23.0947ZM120.134 8.76753C120.233 8.49381 120.413 8.25665 120.65 8.08742C120.887 7.9182 121.17 7.82488 121.461 7.8198C121.649 7.81546 121.835 7.84853 122.01 7.91709C122.185 7.98564 122.344 8.0883 122.479 8.21909C122.614 8.34987 122.721 8.50616 122.794 8.67884C122.868 8.85152 122.907 9.03714 122.908 9.22487C122.905 9.43862 122.866 9.65032 122.792 9.85117L113.432 35.8947C113.346 36.1799 113.172 36.4305 112.934 36.6103C112.697 36.79 112.408 36.8897 112.11 36.8949C111.812 36.9001 111.521 36.8106 111.277 36.6392C111.033 36.4678 110.85 36.2235 110.754 35.9414L100.491 10.2404C100.411 10.0423 100.364 9.83207 100.354 9.61855C100.348 9.4309 100.38 9.24405 100.448 9.0689C100.515 8.89376 100.617 8.73382 100.747 8.59841C100.877 8.46301 101.033 8.35485 101.205 8.28024C101.377 8.20563 101.563 8.16606 101.751 8.16384C102.042 8.15876 102.327 8.24216 102.57 8.40301C102.813 8.56387 103.001 8.7946 103.11 9.06469L112.012 31.4784L120.134 8.76753ZM129.108 23.0801L129.319 35.1591C129.337 35.355 129.314 35.5525 129.253 35.7393C129.191 35.9261 129.091 36.0982 128.96 36.2447C128.828 36.3912 128.668 36.509 128.489 36.5908C128.31 36.6726 128.116 36.7166 127.92 36.72C127.723 36.7235 127.528 36.6863 127.346 36.6108C127.164 36.5353 127 36.4231 126.864 36.2813C126.727 36.1394 126.622 35.971 126.554 35.7864C126.485 35.6019 126.456 35.4053 126.467 35.2088L126.012 9.13907C125.994 8.94315 126.017 8.74561 126.078 8.55881C126.14 8.37201 126.24 8.19997 126.371 8.05346C126.502 7.90694 126.663 7.7891 126.842 7.70731C127.02 7.62551 127.214 7.58152 127.411 7.57809C127.608 7.57465 127.803 7.61185 127.985 7.68735C128.167 7.76285 128.331 7.87503 128.467 8.01687C128.603 8.15872 128.709 8.32717 128.777 8.5117C128.846 8.69623 128.875 8.89286 128.864 9.08929L129.063 20.481L143.662 20.2262L143.463 8.86607C143.445 8.67014 143.468 8.4726 143.53 8.2858C143.592 8.099 143.691 7.92697 143.823 7.78045C143.954 7.63394 144.114 7.51609 144.293 7.4343C144.472 7.3525 144.666 7.30851 144.863 7.30508C145.059 7.30165 145.255 7.33884 145.436 7.41434C145.618 7.48984 145.782 7.60202 145.919 7.74387C146.055 7.88571 146.16 8.05416 146.229 8.23869C146.297 8.42322 146.327 8.61985 146.315 8.81629L146.77 34.886C146.788 35.082 146.766 35.2795 146.704 35.4663C146.642 35.6531 146.543 35.8251 146.411 35.9717C146.28 36.1182 146.12 36.236 145.941 36.3178C145.762 36.3996 145.568 36.4436 145.371 36.447C145.175 36.4505 144.979 36.4133 144.798 36.3378C144.616 36.2623 144.452 36.1501 144.315 36.0082C144.179 35.8664 144.073 35.6979 144.005 35.5134C143.937 35.3289 143.907 35.1323 143.919 34.9358L143.707 22.8252L129.108 23.0801ZM159.908 16.0862C161.133 16.0122 162.359 16.2247 163.488 16.7071C164.618 17.1894 165.619 17.9282 166.413 18.865C166.604 19.0825 166.712 19.3604 166.719 19.6499C166.725 19.8104 166.698 19.9706 166.641 20.1207C166.583 20.2708 166.496 20.4078 166.385 20.5234C166.273 20.639 166.139 20.7308 165.991 20.7934C165.843 20.856 165.684 20.8881 165.523 20.8877C165.328 20.8924 165.134 20.8505 164.958 20.7657C164.782 20.6808 164.629 20.5553 164.511 20.3996C163.954 19.749 163.249 19.2411 162.456 18.9182C161.663 18.5953 160.804 18.4667 159.951 18.5431C156.088 18.6106 154.077 21.1191 154.167 26.2777C154.257 31.4364 156.355 33.9127 160.218 33.8453C161.997 33.7975 163.704 33.1305 165.045 31.9593C165.262 31.7682 165.54 31.6599 165.83 31.6532C166.152 31.6476 166.464 31.7704 166.696 31.9945C166.928 32.2187 167.062 32.5259 167.068 32.8486C167.07 33.0532 167.023 33.2554 166.931 33.4384C166.84 33.6214 166.706 33.7799 166.541 33.9009C164.805 35.4293 162.573 36.2743 160.26 36.2785C154.849 36.3729 151.561 33.1982 151.441 26.3253C151.321 19.4524 154.496 16.1807 159.908 16.0862ZM173.127 6.95747L173.546 30.9496C173.575 32.6243 174.132 33.31 175.262 33.2903C175.436 33.2735 175.611 33.2928 175.777 33.347C175.942 33.4012 176.095 33.4891 176.225 33.6052C176.356 33.7213 176.46 33.8631 176.533 34.0217C176.606 34.1802 176.645 34.3521 176.648 34.5265C176.651 34.7009 176.618 34.8741 176.551 35.0351C176.484 35.1961 176.384 35.3414 176.258 35.462C176.132 35.5826 175.982 35.6758 175.818 35.7358C175.655 35.7957 175.48 35.8211 175.306 35.8104C172.502 35.8593 170.916 34.2038 170.86 30.9806L170.441 7.00436C170.445 6.65191 170.584 6.31442 170.83 6.0616C171.075 5.80877 171.409 5.65994 171.761 5.64583C172.116 5.63963 172.458 5.77409 172.714 6.01985C172.97 6.26562 173.119 6.6027 173.127 6.95747ZM196.313 25.5184C196.433 32.3913 193.131 35.681 187.68 35.7761C182.23 35.8713 178.824 32.6987 178.704 25.8257C178.584 18.9528 181.925 15.7019 187.328 15.6076C192.732 15.5133 196.192 18.6375 196.313 25.5184ZM193.587 25.5659C193.495 20.2809 191.234 17.9734 187.371 18.0408C183.508 18.1082 181.337 20.5168 181.429 25.7782C181.521 31.0395 183.783 33.4102 187.638 33.343C191.493 33.2757 193.712 30.9294 193.619 25.5654L193.587 25.5659ZM202.627 16.9369L202.818 27.8783C202.865 30.6037 203.783 32.9347 208.018 32.8608C212.252 32.7869 213.095 30.4015 213.048 27.6997L212.857 16.7583C212.856 16.5791 212.891 16.4015 212.958 16.2357C213.026 16.0699 213.126 15.9191 213.252 15.7921C213.379 15.665 213.529 15.5642 213.694 15.4954C213.86 15.4266 214.037 15.3912 214.216 15.3912C214.39 15.3902 214.563 15.4236 214.724 15.4895C214.885 15.5554 215.031 15.6526 215.154 15.7753C215.278 15.898 215.376 16.0438 215.442 16.2045C215.509 16.3652 215.543 16.5374 215.543 16.7114L215.734 27.6528C215.803 31.6028 214.564 35.3069 208.062 35.4204C201.561 35.5339 200.201 31.9067 200.132 27.9251L199.941 16.9837C199.935 16.8065 199.964 16.6299 200.028 16.4644C200.091 16.2988 200.187 16.1477 200.31 16.0202C200.434 15.8927 200.581 15.7912 200.744 15.722C200.908 15.6528 201.083 15.6172 201.26 15.6173C201.616 15.6132 201.959 15.7494 202.215 15.9964C202.47 16.2434 202.619 16.5813 202.627 16.9369ZM233.464 17.5286L233.261 5.90783C233.255 5.55164 233.391 5.20758 233.638 4.95132C233.886 4.69507 234.225 4.54761 234.581 4.5414C234.937 4.53518 235.281 4.67071 235.537 4.91817C235.794 5.16564 235.941 5.50476 235.947 5.86094L236.311 26.6931C236.408 32.223 233.019 35.0164 228.239 35.0998C222.828 35.1942 219.58 32.0189 219.46 25.1459C219.34 18.273 222.31 15.0286 227.713 14.9343C228.807 14.8951 229.895 15.1088 230.892 15.5588C231.89 16.0088 232.77 16.6829 233.464 17.5286ZM233.524 20.9256C233.524 20.9256 231.879 17.2639 227.929 17.3328C223.979 17.4018 222.055 19.9088 222.145 25.0675C222.235 30.2261 224.333 32.7024 228.196 32.635C231.419 32.5787 233.694 30.6978 233.624 26.7083L233.524 20.9256Z" fill="#77747D"/>
</g>
<defs>
<clipPath id="clip0_10092_17910">
<rect width="235.797" height="37.6174" fill="white" transform="translate(0.0898438 4.43829) rotate(-1)"/>
</clipPath>
</defs>
</svg>
